<svg width="22" height="17" viewBox="0 0 22 17" fill="none" xmlns="http://www.w3.org/2000/svg">
<path d="M20 11.7336H2C0.89543 11.7336 0 12.629 0 13.7336V14.1336C0 15.2382 0.89543 16.1336 2 16.1336H20C21.1046 16.1336 22 15.2382 22 14.1336V13.7336C22 12.629 21.1046 11.7336 20 11.7336Z" fill="#4E80EE"/>
<path d="M12.6667 5.86725H2C0.89543 5.86725 0 6.76268 0 7.86725V8.26725C0 9.37182 0.89543 10.2672 2 10.2672H12.6667C13.7713 10.2672 14.6667 9.37182 14.6667 8.26725V7.86725C14.6667 6.76268 13.7713 5.86725 12.6667 5.86725Z" fill="#4E80EE"/>
<path d="M5.33333 0H2C0.89543 0 0 0.89543 0 2V2.4C0 3.50457 0.89543 4.4 2 4.4H5.33333C6.4379 4.4 7.33333 3.50457 7.33333 2.4V2C7.33333 0.89543 6.4379 0 5.33333 0Z" fill="#4E80EE"/>
</svg>
